HIERARCHY
ROOT Hips
{
  OFFSET 50.378 100.696 11.0203
  CHANNELS 6 Xposition Yposition Zposition Zrotation Xrotation Yrotation
  JOINT spine
  {
    OFFSET 0 8.81704 0.507024
    CHANNELS 3 Zrotation Xrotation Yrotation
    JOINT spine1
    {
      OFFSET 0 10.7766 0
      CHANNELS 3 Zrotation Xrotation Yrotation
      JOINT spine2
      {
        OFFSET 0 10.3259 0
        CHANNELS 3 Zrotation Xrotation Yrotation
        JOINT Neck
        {
          OFFSET 0 26.511 1.26395
          CHANNELS 3 Zrotation Xrotation Yrotation
          JOINT Head
          {
            OFFSET 0 8.00966 0
            CHANNELS 3 Zrotation Xrotation Yrotation
            End Site
            {
              OFFSET 0 19.3879 -6.39386
            }
          }
        }
        JOINT RightShoulder
        {
          OFFSET -4.34795 11.1512 -0.605422
          CHANNELS 3 Zrotation Xrotation Yrotation
          JOINT RightArm
          {
            OFFSET 0 14.6258 0
            CHANNELS 3 Zrotation Xrotation Yrotation
            JOINT RightArmRoll
            {
              OFFSET 0 7.3834 0
              CHANNELS 3 Zrotation Xrotation Yrotation
              JOINT RightForeArm
              {
                OFFSET 0 21.5052 0
                CHANNELS 3 Zrotation Xrotation Yrotation
                JOINT RightForeArmRoll
                {
                  OFFSET 0 8.28532 0
                  CHANNELS 3 Zrotation Xrotation Yrotation
                  JOINT RightHand
                  {
                    OFFSET 0 16.6268 0
                    CHANNELS 3 Zrotation Xrotation Yrotation
                    End Site
                    {
                      OFFSET 0 0 0
                    }
                  }
                }
              }
            }
          }
        }
        JOINT LeftShoulder
        {
          OFFSET 4.34795 11.1512 -0.605422
          CHANNELS 3 Zrotation Xrotation Yrotation
          JOINT LeftArm
          {
            OFFSET 0 14.6258 0
            CHANNELS 3 Zrotation Xrotation Yrotation
            JOINT LeftArmRoll
            {
              OFFSET 0 7.3834 0
              CHANNELS 3 Zrotation Xrotation Yrotation
              JOINT LeftForeArm
              {
                OFFSET 0 21.5052 0
                CHANNELS 3 Zrotation Xrotation Yrotation
                JOINT LeftForeArmRoll
                {
                  OFFSET 0 8.28532 0
                  CHANNELS 3 Zrotation Xrotation Yrotation
                  JOINT LeftHand
                  {
                    OFFSET 0 16.6268 0
                    CHANNELS 3 Zrotation Xrotation Yrotation
                    End Site
                    {
                      OFFSET 0 0 0
                    }
                  }
                }
              }
            }
          }
        }
      }
    }
  }
  JOINT RightUpLeg
  {
    OFFSET -7.8151 -1.43309 -1.20217
    CHANNELS 3 Zrotation Xrotation Yrotation
    JOINT RightUpLegRoll
    {
      OFFSET 0 19.4959 0
      CHANNELS 3 Zrotation Xrotation Yrotation
      JOINT RightLeg
      {
        OFFSET 0 -24.1427 0
        CHANNELS 3 Zrotation Xrotation Yrotation
        JOINT RightLegRoll
        {
          OFFSET 0 24.2217 0
          CHANNELS 3 Zrotation Xrotation Yrotation
          JOINT RightFoot
          {
            OFFSET 0 20.1605 0
            CHANNELS 3 Zrotation Xrotation Yrotation
            JOINT RightToeBase
            {
              OFFSET 0 16.8532 0
              CHANNELS 3 Zrotation Xrotation Yrotation
              End Site
              {
                OFFSET 0.00714343 8.16186 -0.940781
              }
            }
          }
        }
      }
    }
  }
  JOINT LeftUpLeg
  {
    OFFSET 7.8151 -1.43309 -1.20217
    CHANNELS 3 Zrotation Xrotation Yrotation
    JOINT LeftUpLegRoll
    {
      OFFSET 0 19.496 0
      CHANNELS 3 Zrotation Xrotation Yrotation
      JOINT LeftLeg
      {
        OFFSET 0 24.1426 0
        CHANNELS 3 Zrotation Xrotation Yrotation
        JOINT LeftLegRoll
        {
          OFFSET 0 24.4456 0
          CHANNELS 3 Zrotation Xrotation Yrotation
          JOINT LeftFoot
          {
            OFFSET 0 19.9366 0
            CHANNELS 3 Zrotation Xrotation Yrotation
            JOINT LeftToeBase
            {
              OFFSET 0 16.8532 0
              CHANNELS 3 Zrotation Xrotation Yrotation
              End Site
              {
                OFFSET -0.0320138 8.16187 -0.940781
              }
            }
          }
        }
      }
    }
  }
}
MOTION
Frames: 13
Frame Time: 0.00208333
51.6399 100.619 11.3959 -0.859104 -1.48607 1.55304 0.118516 -2.45454 -0.161292 0.217414 -0.906593 -0.333341 0.221413 0.738463 -0.33701 4.10561 27.8093 1.49166 -10.4283 -5.56812 1.33817 69.5031 -2.41227 -2.49995 105.162 18.7663 12.2275 3.18055e-015 -6.36111e-015 -3.18055e-015 14.1339 0.0960605 -0.406728 2.73931e-005 -5.7942e-007 -3.02382 8.02891 -4.95145 0.697695 -56.7805 -5.338 3.20266 -117.038 10.9354 -4.58788 2.61305e-006 -7.93192e-007 3.31033e-006 -10.5309 3.50746 0.841397 3.00435e-006 2.11631e-006 2.99999 -8.02892 -4.95147 -0.697686 178.879 -0.147732 -0.785343 180 7.01555e-015 178.959 178.361 4.45236 179.769 -2.19996e-006 -5.43914e-006 0.0448746 -18.4713 67.7559 19.3333 8.13649 25.2327 -3.48773 -176.402 0.159447 1.77916 4.54188e-006 -4.6773e-006 -1.09213 -2.40447 -7.55329 0.142323 3.15894e-006 -3.53574e-006 -0.128319 19.6387 69.1471 -20.5446 -8.13649 25.2327 3.48774 
51.6531 100.621 11.3932 -0.858333 -1.47035 1.55031 0.118887 -2.45678 -0.163546 0.218947 -0.911077 -0.338264 0.222985 0.733979 -0.341954 4.09403 27.8163 1.49779 -10.4305 -5.58299 1.33857 69.4818 -2.40946 -2.49676 105.188 18.721 12.2675 -8.74653e-015 0 -0 14.0976 0.0874074 -0.396962 2.73931e-005 -5.7942e-007 -3.02295 8.02891 -4.95145 0.697695 -56.7981 -5.33909 3.20452 -117.028 10.8682 -4.62546 2.61305e-006 -7.93192e-007 3.31033e-006 -10.5235 3.56435 0.847799 3.00435e-006 2.11631e-006 2.99999 -8.02892 -4.95147 -0.697686 178.875 -0.125589 -0.784589 180 7.01555e-015 178.959 178.359 4.45671 179.769 -2.19996e-006 -5.43914e-006 0.0448746 -18.4699 67.7542 19.3317 8.13649 25.2327 -3.48773 -176.406 0.181035 1.78367 4.54188e-006 -4.6773e-006 -1.09213 -2.40267 -7.5603 0.142277 3.15894e-006 -3.53574e-006 -0.128319 19.6385 69.147 -20.5445 -8.13649 25.2327 3.48774 
51.6592 100.622 11.4201 -0.857393 -1.45385 1.54757 0.119229 -2.45924 -0.165903 0.220444 -0.916005 -0.343363 0.224523 0.72905 -0.347071 4.08137 27.8244 1.50446 -10.432 -5.59858 1.33919 69.4602 -2.40558 -2.49303 105.215 18.6775 12.3075 5.56597e-015 -9.54166e-015 -0 14.0608 0.0745259 -0.38648 2.73931e-005 -5.7942e-007 -3.02205 8.02891 -4.95145 0.697695 -56.8167 -5.34023 3.20647 -117.017 10.8007 -4.66265 2.61305e-006 -7.93192e-007 3.31033e-006 -10.5166 3.62143 0.854216 3.00435e-006 2.11631e-006 2.99999 -8.02892 -4.95147 -0.697686 178.871 -0.102494 -0.783775 180 7.01555e-015 178.959 178.357 4.46119 179.769 -2.19996e-006 -5.43914e-006 0.0448746 -18.4684 67.7523 19.3301 8.13649 25.2327 -3.48773 -176.411 0.203646 1.7884 4.54188e-006 -4.6773e-006 -1.09213 -2.40085 -7.56752 0.142225 3.15894e-006 -3.53574e-006 -0.128319 19.6384 69.1468 -20.5443 -8.13649 25.2327 3.48774 
51.6651 100.62 11.4139 -0.856334 -1.4368 1.54482 0.11955 -2.46186 -0.168332 0.221917 -0.921246 -0.348584 0.226037 0.723809 -0.352311 4.06796 27.8334 1.5115 -10.4331 -5.61466 1.33996 69.4385 -2.40097 -2.48893 105.243 18.6352 12.3477 -2.38542e-015 6.36111e-015 -3.18055e-015 14.0237 0.0586846 -0.375496 2.73931e-005 -5.7942e-007 -3.02114 8.02891 -4.95145 0.697695 -56.8359 -5.34142 3.2085 -117.006 10.733 -4.69958 2.61305e-006 -7.93192e-007 3.31033e-006 -10.5102 3.67867 0.860644 3.00435e-006 2.11631e-006 2.99999 -8.02892 -4.95147 -0.697686 178.867 -0.0787338 -0.782919 180 7.01555e-015 178.959 178.354 4.46575 179.769 -2.19996e-006 -5.43914e-006 0.0448746 -18.4669 67.7505 19.3285 8.13649 25.2327 -3.48773 -176.415 0.226974 1.79328 4.54188e-006 -4.6773e-006 -1.09213 -2.39901 -7.57489 0.142168 3.15894e-006 -3.53574e-006 -0.128319 19.6382 69.1466 -20.5441 -8.13649 25.2327 3.48774 
51.6594 100.617 11.3611 -0.855207 -1.41945 1.54207 0.119858 -2.46456 -0.170803 0.223375 -0.926664 -0.353876 0.227536 0.71839 -0.357621 4.05411 27.8428 1.51877 -10.4339 -5.63104 1.34082 69.4167 -2.39593 -2.4846 105.27 18.5937 12.3878 -3.18055e-015 3.18055e-015 -3.18055e-015 13.9863 0.0411518 -0.364226 2.73931e-005 -5.7942e-007 -3.02021 8.02891 -4.95145 0.697695 -56.8554 -5.34263 3.21056 -116.995 10.6652 -4.73634 2.61305e-006 -7.93192e-007 3.31033e-006 -10.5041 3.73599 0.867079 3.00435e-006 2.11631e-006 2.99999 -8.02892 -4.95147 -0.697686 178.863 -0.0545926 -0.782039 180 7.01555e-015 178.959 178.352 4.47033 179.77 -2.19996e-006 -5.43914e-006 0.0448746 -18.4653 67.7486 19.3268 8.13649 25.2327 -3.48773 -176.42 0.250711 1.79826 4.54188e-006 -4.6773e-006 -1.09213 -2.39715 -7.58235 0.142108 3.15894e-006 -3.53574e-006 -0.128319 19.638 69.1464 -20.5439 -8.13649 25.2327 3.48774 
51.6626 100.618 11.373 -0.854061 -1.40202 1.53932 0.120164 -2.46729 -0.173283 0.224829 -0.932127 -0.359185 0.229031 0.712927 -0.362948 4.04014 27.8523 1.52609 -10.4347 -5.64748 1.3417 69.3949 -2.39078 -2.48023 105.298 18.5524 12.4279 -6.36111e-015 -3.18055e-015 -6.36111e-015 13.9489 0.0231962 -0.352884 2.73931e-005 -5.7942e-007 -3.01929 8.02891 -4.95145 0.697695 -56.875 -5.34385 3.21264 -116.983 10.5974 -4.77306 2.61305e-006 -7.93192e-007 3.31033e-006 -10.498 3.79333 0.873517 3.00435e-006 2.11631e-006 2.99999 -8.02892 -4.95147 -0.697686 178.858 -0.0303563 -0.781153 180 7.01555e-015 178.959 178.35 4.47494 179.77 -2.19996e-006 -5.43914e-006 0.0448746 -18.4638 67.7467 19.3252 8.13649 25.2327 -3.48773 -176.425 0.27455 1.80326 4.54188e-006 -4.6773e-006 -1.09213 -2.39529 -7.58982 0.142048 3.15894e-006 -3.53574e-006 -0.128319 19.6378 69.1462 -20.5437 -8.13649 25.2327 3.48774 
51.6632 100.619 11.3807 -0.852947 -1.38474 1.53658 0.120475 -2.46997 -0.175744 0.226289 -0.937501 -0.364459 0.230532 0.707553 -0.36824 4.0264 27.8616 1.53331 -10.4356 -5.66378 1.34254 69.3731 -2.38585 -2.47596 105.325 18.5107 12.468 -4.77083e-015 -3.18055e-015 -3.18055e-015 13.9116 0.00608616 -0.341686 2.73931e-005 -5.7942e-007 -3.01836 8.02891 -4.95145 0.697695 -56.8945 -5.34506 3.21469 -116.972 10.5296 -4.80984 2.61305e-006 -7.93192e-007 3.31033e-006 -10.4918 3.85062 0.879954 3.00435e-006 2.11631e-006 2.99999 -8.02892 -4.95147 -0.697686 178.854 -0.00631028 -0.780279 180 7.01555e-015 178.959 178.348 4.47953 179.77 -2.19996e-006 -5.43914e-006 0.0448746 -18.4623 67.7448 19.3235 8.13649 25.2327 -3.48773 -176.429 0.298185 1.80821 4.54188e-006 -4.6773e-006 -1.09213 -2.39344 -7.59726 0.141989 3.15894e-006 -3.53574e-006 -0.128319 19.6376 69.146 -20.5435 -8.13649 25.2327 3.48774 
51.6524 100.616 11.3685 -0.851915 -1.36785 1.53383 0.120801 -2.47255 -0.178152 0.227765 -0.942652 -0.369645 0.232049 0.702401 -0.373445 4.01319 27.8703 1.54025 -10.4368 -5.67972 1.34327 69.3515 -2.38144 -2.47196 105.353 18.4681 12.508 -2.38542e-015 3.18055e-015 -4.77083e-015 13.8746 -0.00890969 -0.330845 2.73931e-005 -5.7942e-007 -3.01745 8.02891 -4.95145 0.697695 -56.9135 -5.34624 3.2167 -116.961 10.462 -4.8468 2.61305e-006 -7.93192e-007 3.31033e-006 -10.4853 3.90781 0.886386 3.00435e-006 2.11631e-006 2.99999 -8.02892 -4.95147 -0.697686 178.85 0.0172601 -0.779435 180 7.01555e-015 178.959 178.345 4.48406 179.771 -2.19996e-006 -5.43914e-006 0.0448746 -18.4608 67.743 19.3219 8.13649 25.2327 -3.48773 -176.434 0.321307 1.81306 4.54188e-006 -4.6773e-006 -1.09213 -2.3916 -7.60459 0.141933 3.15894e-006 -3.53574e-006 -0.128319 19.6374 69.1458 -20.5433 -8.13649 25.2327 3.48774 
51.6623 100.615 11.3602 -0.851015 -1.35158 1.53109 0.12115 -2.47494 -0.180479 0.229267 -0.947447 -0.374691 0.233591 0.697605 -0.37851 4.00084 27.8781 1.54676 -10.4385 -5.6951 1.34382 69.33 -2.37789 -2.46839 105.38 18.4241 12.548 2.06736e-014 -9.54166e-015 3.18055e-015 13.838 -0.0205228 -0.320578 2.73931e-005 -5.7942e-007 -3.01656 8.02891 -4.95145 0.697695 -56.9318 -5.34737 3.21863 -116.951 10.3946 -4.88405 2.61305e-006 -7.93192e-007 3.31033e-006 -10.4784 3.96484 0.892809 3.00435e-006 2.11631e-006 2.99999 -8.02892 -4.95147 -0.697686 178.846 0.0400693 -0.77864 180 7.01555e-015 178.959 178.343 4.4885 179.771 -2.19996e-006 -5.43914e-006 0.0448746 -18.4593 67.7412 19.3203 8.13649 25.2327 -3.48773 -176.438 0.34361 1.81772 4.54188e-006 -4.6773e-006 -1.09213 -2.38978 -7.61175 0.141882 3.15894e-006 -3.53574e-006 -0.128319 19.6373 69.1456 -20.5431 -8.13649 25.2327 3.48774 
51.6697 100.607 11.3677 -0.850298 -1.33617 1.52836 0.121531 -2.47709 -0.182692 0.230806 -0.951753 -0.379544 0.23517 0.693299 -0.383384 3.98967 27.8846 1.55268 -10.4409 -5.70968 1.34414 69.3087 -2.3755 -2.46542 105.407 18.378 12.5878 5.56597e-015 -6.36111e-015 3.18055e-015 13.802 -0.0274848 -0.311099 2.73931e-005 -5.7942e-007 -3.0157 8.02891 -4.95145 0.697695 -56.9491 -5.34843 3.22045 -116.942 10.3276 -4.9217 2.61305e-006 -7.93192e-007 3.31033e-006 -10.4707 4.02164 0.899219 3.00435e-006 2.11631e-006 2.99999 -8.02892 -4.95147 -0.697686 178.842 0.061832 -0.77791 180 7.01555e-015 178.959 178.341 4.49282 179.771 -2.19996e-006 -5.43914e-006 0.0448746 -18.4579 67.7395 19.3188 8.13649 25.2327 -3.48773 -176.442 0.364788 1.82214 4.54188e-006 -4.6773e-006 -1.09213 -2.388 -7.61867 0.141839 3.15894e-006 -3.53574e-006 -0.128319 19.6372 69.1455 -20.543 -8.13649 25.2327 3.48774 
51.6725 100.608 11.3534 -0.849815 -1.32184 1.52564 0.121953 -2.47893 -0.184761 0.232393 -0.955436 -0.384152 0.236795 0.689616 -0.388013 3.98002 27.8895 1.55784 -10.4443 -5.72327 1.34414 69.2877 -2.3746 -2.46321 105.433 18.3295 12.6276 -9.54166e-015 0 -6.36111e-015 13.7668 -0.0285269 -0.302623 2.73931e-005 -5.7942e-007 -3.01486 8.02891 -4.95145 0.697695 -56.9651 -5.34941 3.22213 -116.934 10.261 -4.95986 2.61305e-006 -7.93192e-007 3.31033e-006 -10.4622 4.07814 0.905612 3.00435e-006 2.11631e-006 2.99999 -8.02892 -4.95147 -0.697686 178.839 0.0822628 -0.777265 180 7.01555e-015 178.959 178.339 4.49699 179.771 -2.19996e-006 -5.43914e-006 0.0448746 -18.4565 67.7378 19.3173 8.13649 25.2327 -3.48773 -176.446 0.384532 1.82625 4.54188e-006 -4.6773e-006 -1.09213 -2.38626 -7.62529 0.141805 3.15894e-006 -3.53574e-006 -0.128319 19.6371 69.1454 -20.5429 -8.13649 25.2327 3.48774 
51.6636 100.608 11.3407 -0.849615 -1.30883 1.52293 0.122426 -2.48039 -0.186655 0.234038 -0.958362 -0.388462 0.238477 0.686689 -0.392346 3.97221 27.8925 1.56209 -10.4487 -5.73563 1.34378 69.2671 -2.37551 -2.46192 105.459 18.2779 12.6672 -7.95139e-016 0 -0 13.7324 -0.0223807 -0.295364 2.73931e-005 -5.7942e-007 -3.01406 8.02891 -4.95145 0.697695 -56.9796 -5.35029 3.22364 -116.927 10.195 -4.99865 2.61305e-006 -7.93192e-007 3.31033e-006 -10.4527 4.13429 0.911985 3.00435e-006 2.11631e-006 2.99999 -8.02892 -4.95147 -0.697686 178.836 0.101076 -0.776722 180 7.01555e-015 178.959 178.337 4.50099 179.771 -2.19996e-006 -5.43914e-006 0.0448746 -18.4553 67.7363 19.316 8.13649 25.2327 -3.48773 -176.449 0.402536 1.82997 4.54188e-006 -4.6773e-006 -1.09213 -2.38457 -7.63155 0.141782 3.15894e-006 -3.53574e-006 -0.128319 19.6371 69.1454 -20.5429 -8.13649 25.2327 3.48774 
51.6647 100.607 11.3524 -0.849749 -1.29737 1.52024 0.122957 -2.4814 -0.188343 0.235752 -0.960398 -0.392421 0.240225 0.684653 -0.39633 3.96656 27.8932 1.56524 -10.4545 -5.74657 1.34299 69.2469 -2.37853 -2.46171 105.484 18.2226 12.7066 7.15625e-015 -6.36111e-015 -0 13.6991 -0.00777775 -0.289538 2.73931e-005 -5.7942e-007 -3.01331 8.02891 -4.95145 0.697695 -56.9924 -5.35106 3.22496 -116.921 10.1297 -5.03818 2.61305e-006 -7.93192e-007 3.31033e-006 -10.4419 4.19003 0.918332 3.00435e-006 2.11631e-006 2.99999 -8.02892 -4.95147 -0.697686 178.833 0.117987 -0.776299 180 7.01555e-015 178.959 178.336 4.50477 179.772 -2.19996e-006 -5.43914e-006 0.0448746 -18.4541 67.7348 19.3147 8.13649 25.2327 -3.48773 -176.452 0.418493 1.83325 4.54188e-006 -4.6773e-006 -1.09213 -2.38293 -7.63739 0.141772 3.15894e-006 -3.53574e-006 -0.128319 19.6371 69.1454 -20.543 -8.13649 25.2327 3.48774 
